<svg xmlns="http://www.w3.org/2000/svg" width="1540" height="760" viewBox="0 0 1540 760">
<style>
text { font-family: Arial, sans-serif; }
</style>
<rect x="0" y="0" width="1540" height="760" fill="#f8fafc" />
<text x="40" y="42" fill="#020617" font-size="32" font-weight="700">Corne wiring diagram</text>
<text x="40" y="68" fill="#475569" font-size="16">Generated from README.md pin assignments</text>
<text x="40" y="110" fill="#111827" font-size="24" font-weight="700">Left Half</text>
<text x="40" y="134" fill="#4b5563" font-size="13">Back view. Columns left-&gt;right.</text>
<rect x="40" y="130" width="245" height="588" rx="18" fill="#f8fafc" stroke="#0f172a" stroke-width="2" />
<text x="58" y="160" fill="#0f172a" font-size="20" font-weight="700">nice!nano</text>
<text x="58" y="180" fill="#475569" font-size="12">nRF GPIO pins only</text>
<rect x="212" y="162" width="360" height="252" rx="18" fill="#fffbeb" stroke="#d97706" stroke-width="2" />
<text x="230" y="152" fill="#92400e" font-size="18" font-weight="700">Keyboard matrix</text>
<rect x="54" y="216" width="217" height="34" rx="10" fill="#fee2e2" stroke="#b91c1c" stroke-width="1.5" />
<text x="64" y="238" fill="#7f1d1d" font-size="15" font-weight="700">P0.31 -&gt; R0</text>
<line x1="271" y1="233" x2="196" y2="207.0" stroke="#dc2626" stroke-width="3" />
<line x1="196" y1="207.0" x2="554" y2="207.0" stroke="#dc2626" stroke-width="3" />
<text x="566" y="212.0" fill="#991b1b" font-size="14" font-weight="700">R0</text>
<rect x="54" y="270" width="217" height="34" rx="10" fill="#fee2e2" stroke="#b91c1c" stroke-width="1.5" />
<text x="64" y="292" fill="#7f1d1d" font-size="15" font-weight="700">P0.29 -&gt; R1</text>
<line x1="271" y1="287" x2="196" y2="261.0" stroke="#dc2626" stroke-width="3" />
<line x1="196" y1="261.0" x2="554" y2="261.0" stroke="#dc2626" stroke-width="3" />
<text x="566" y="266.0" fill="#991b1b" font-size="14" font-weight="700">R1</text>
<rect x="54" y="324" width="217" height="34" rx="10" fill="#fee2e2" stroke="#b91c1c" stroke-width="1.5" />
<text x="64" y="346" fill="#7f1d1d" font-size="15" font-weight="700">P0.02 -&gt; R2</text>
<line x1="271" y1="341" x2="196" y2="315.0" stroke="#dc2626" stroke-width="3" />
<line x1="196" y1="315.0" x2="554" y2="315.0" stroke="#dc2626" stroke-width="3" />
<text x="566" y="320.0" fill="#991b1b" font-size="14" font-weight="700">R2</text>
<rect x="54" y="378" width="217" height="34" rx="10" fill="#fee2e2" stroke="#b91c1c" stroke-width="1.5" />
<text x="64" y="400" fill="#7f1d1d" font-size="15" font-weight="700">P1.15 -&gt; R3</text>
<line x1="271" y1="395" x2="196" y2="369.0" stroke="#dc2626" stroke-width="3" />
<line x1="196" y1="369.0" x2="554" y2="369.0" stroke="#dc2626" stroke-width="3" />
<text x="566" y="374.0" fill="#991b1b" font-size="14" font-weight="700">R3</text>
<rect x="54" y="450" width="217" height="30" rx="10" fill="#dbeafe" stroke="#1d4ed8" stroke-width="1.5" />
<text x="64" y="470" fill="#1e3a8a" font-size="14" font-weight="700">P0.17 -&gt; C0</text>
<line x1="271" y1="465" x2="257.0" y2="424" stroke="#2563eb" stroke-width="3" />
<line x1="257.0" y1="180" x2="257.0" y2="424" stroke="#2563eb" stroke-width="3" />
<text x="247.0" y="152" fill="#1d4ed8" font-size="14" font-weight="700">C0</text>
<rect x="54" y="494" width="217" height="30" rx="10" fill="#dbeafe" stroke="#1d4ed8" stroke-width="1.5" />
<text x="64" y="514" fill="#1e3a8a" font-size="14" font-weight="700">P0.11 -&gt; C1</text>
<line x1="271" y1="509" x2="311.0" y2="424" stroke="#2563eb" stroke-width="3" />
<line x1="311.0" y1="180" x2="311.0" y2="424" stroke="#2563eb" stroke-width="3" />
<text x="301.0" y="152" fill="#1d4ed8" font-size="14" font-weight="700">C1</text>
<rect x="54" y="538" width="217" height="30" rx="10" fill="#dbeafe" stroke="#1d4ed8" stroke-width="1.5" />
<text x="64" y="558" fill="#1e3a8a" font-size="14" font-weight="700">P1.00 -&gt; C2</text>
<line x1="271" y1="553" x2="365.0" y2="424" stroke="#2563eb" stroke-width="3" />
<line x1="365.0" y1="180" x2="365.0" y2="424" stroke="#2563eb" stroke-width="3" />
<text x="355.0" y="152" fill="#1d4ed8" font-size="14" font-weight="700">C2</text>
<rect x="54" y="582" width="217" height="30" rx="10" fill="#dbeafe" stroke="#1d4ed8" stroke-width="1.5" />
<text x="64" y="602" fill="#1e3a8a" font-size="14" font-weight="700">P0.24 -&gt; C3</text>
<line x1="271" y1="597" x2="419.0" y2="424" stroke="#2563eb" stroke-width="3" />
<line x1="419.0" y1="180" x2="419.0" y2="424" stroke="#2563eb" stroke-width="3" />
<text x="409.0" y="152" fill="#1d4ed8" font-size="14" font-weight="700">C3</text>
<rect x="54" y="626" width="217" height="30" rx="10" fill="#dbeafe" stroke="#1d4ed8" stroke-width="1.5" />
<text x="64" y="646" fill="#1e3a8a" font-size="14" font-weight="700">P0.22 -&gt; C4</text>
<line x1="271" y1="641" x2="473.0" y2="424" stroke="#2563eb" stroke-width="3" />
<line x1="473.0" y1="180" x2="473.0" y2="424" stroke="#2563eb" stroke-width="3" />
<text x="463.0" y="152" fill="#1d4ed8" font-size="14" font-weight="700">C4</text>
<rect x="54" y="670" width="217" height="30" rx="10" fill="#dbeafe" stroke="#1d4ed8" stroke-width="1.5" />
<text x="64" y="690" fill="#1e3a8a" font-size="14" font-weight="700">P0.20 -&gt; C5</text>
<line x1="271" y1="685" x2="527.0" y2="424" stroke="#2563eb" stroke-width="3" />
<line x1="527.0" y1="180" x2="527.0" y2="424" stroke="#2563eb" stroke-width="3" />
<text x="517.0" y="152" fill="#1d4ed8" font-size="14" font-weight="700">C5</text>
<rect x="238" y="188" width="38" height="38" rx="9" fill="#ffffff" stroke="#334155" stroke-width="1.5" />
<circle cx="257" cy="207" r="7" fill="#111827" />
<text x="242" y="242" fill="#475569" font-size="10">R0 C0</text>
<rect x="292" y="188" width="38" height="38" rx="9" fill="#ffffff" stroke="#334155" stroke-width="1.5" />
<circle cx="311" cy="207" r="7" fill="#111827" />
<text x="296" y="242" fill="#475569" font-size="10">R0 C1</text>
<rect x="346" y="188" width="38" height="38" rx="9" fill="#ffffff" stroke="#334155" stroke-width="1.5" />
<circle cx="365" cy="207" r="7" fill="#111827" />
<text x="350" y="242" fill="#475569" font-size="10">R0 C2</text>
<rect x="400" y="188" width="38" height="38" rx="9" fill="#ffffff" stroke="#334155" stroke-width="1.5" />
<circle cx="419" cy="207" r="7" fill="#111827" />
<text x="404" y="242" fill="#475569" font-size="10">R0 C3</text>
<rect x="454" y="188" width="38" height="38" rx="9" fill="#ffffff" stroke="#334155" stroke-width="1.5" />
<circle cx="473" cy="207" r="7" fill="#111827" />
<text x="458" y="242" fill="#475569" font-size="10">R0 C4</text>
<rect x="508" y="188" width="38" height="38" rx="9" fill="#ffffff" stroke="#334155" stroke-width="1.5" />
<circle cx="527" cy="207" r="7" fill="#111827" />
<text x="512" y="242" fill="#475569" font-size="10">R0 C5</text>
<rect x="238" y="242" width="38" height="38" rx="9" fill="#ffffff" stroke="#334155" stroke-width="1.5" />
<circle cx="257" cy="261" r="7" fill="#111827" />
<text x="242" y="296" fill="#475569" font-size="10">R1 C0</text>
<rect x="292" y="242" width="38" height="38" rx="9" fill="#ffffff" stroke="#334155" stroke-width="1.5" />
<circle cx="311" cy="261" r="7" fill="#111827" />
<text x="296" y="296" fill="#475569" font-size="10">R1 C1</text>
<rect x="346" y="242" width="38" height="38" rx="9" fill="#ffffff" stroke="#334155" stroke-width="1.5" />
<circle cx="365" cy="261" r="7" fill="#111827" />
<text x="350" y="296" fill="#475569" font-size="10">R1 C2</text>
<rect x="400" y="242" width="38" height="38" rx="9" fill="#ffffff" stroke="#334155" stroke-width="1.5" />
<circle cx="419" cy="261" r="7" fill="#111827" />
<text x="404" y="296" fill="#475569" font-size="10">R1 C3</text>
<rect x="454" y="242" width="38" height="38" rx="9" fill="#ffffff" stroke="#334155" stroke-width="1.5" />
<circle cx="473" cy="261" r="7" fill="#111827" />
<text x="458" y="296" fill="#475569" font-size="10">R1 C4</text>
<rect x="508" y="242" width="38" height="38" rx="9" fill="#ffffff" stroke="#334155" stroke-width="1.5" />
<circle cx="527" cy="261" r="7" fill="#111827" />
<text x="512" y="296" fill="#475569" font-size="10">R1 C5</text>
<rect x="238" y="296" width="38" height="38" rx="9" fill="#ffffff" stroke="#334155" stroke-width="1.5" />
<circle cx="257" cy="315" r="7" fill="#111827" />
<text x="242" y="350" fill="#475569" font-size="10">R2 C0</text>
<rect x="292" y="296" width="38" height="38" rx="9" fill="#ffffff" stroke="#334155" stroke-width="1.5" />
<circle cx="311" cy="315" r="7" fill="#111827" />
<text x="296" y="350" fill="#475569" font-size="10">R2 C1</text>
<rect x="346" y="296" width="38" height="38" rx="9" fill="#ffffff" stroke="#334155" stroke-width="1.5" />
<circle cx="365" cy="315" r="7" fill="#111827" />
<text x="350" y="350" fill="#475569" font-size="10">R2 C2</text>
<rect x="400" y="296" width="38" height="38" rx="9" fill="#ffffff" stroke="#334155" stroke-width="1.5" />
<circle cx="419" cy="315" r="7" fill="#111827" />
<text x="404" y="350" fill="#475569" font-size="10">R2 C3</text>
<rect x="454" y="296" width="38" height="38" rx="9" fill="#ffffff" stroke="#334155" stroke-width="1.5" />
<circle cx="473" cy="315" r="7" fill="#111827" />
<text x="458" y="350" fill="#475569" font-size="10">R2 C4</text>
<rect x="508" y="296" width="38" height="38" rx="9" fill="#ffffff" stroke="#334155" stroke-width="1.5" />
<circle cx="527" cy="315" r="7" fill="#111827" />
<text x="512" y="350" fill="#475569" font-size="10">R2 C5</text>
<rect x="400" y="350" width="38" height="38" rx="9" fill="#ffffff" stroke="#334155" stroke-width="1.5" />
<circle cx="419" cy="369" r="7" fill="#111827" />
<text x="404" y="404" fill="#475569" font-size="10">R3 C3</text>
<rect x="454" y="350" width="38" height="38" rx="9" fill="#ffffff" stroke="#334155" stroke-width="1.5" />
<circle cx="473" cy="369" r="7" fill="#111827" />
<text x="458" y="404" fill="#475569" font-size="10">R3 C4</text>
<rect x="508" y="350" width="38" height="38" rx="9" fill="#ffffff" stroke="#334155" stroke-width="1.5" />
<circle cx="527" cy="369" r="7" fill="#111827" />
<text x="512" y="404" fill="#475569" font-size="10">R3 C5</text>
<text x="810" y="110" fill="#111827" font-size="24" font-weight="700">Right Half</text>
<text x="810" y="134" fill="#4b5563" font-size="13">Back view. Columns left-&gt;right.</text>
<rect x="810" y="130" width="245" height="588" rx="18" fill="#f8fafc" stroke="#0f172a" stroke-width="2" />
<text x="828" y="160" fill="#0f172a" font-size="20" font-weight="700">nice!nano</text>
<text x="828" y="180" fill="#475569" font-size="12">nRF GPIO pins only</text>
<rect x="982" y="162" width="360" height="252" rx="18" fill="#fffbeb" stroke="#d97706" stroke-width="2" />
<text x="1000" y="152" fill="#92400e" font-size="18" font-weight="700">Keyboard matrix</text>
<rect x="824" y="216" width="217" height="34" rx="10" fill="#fee2e2" stroke="#b91c1c" stroke-width="1.5" />
<text x="834" y="238" fill="#7f1d1d" font-size="15" font-weight="700">P0.31 -&gt; R0</text>
<line x1="1041" y1="233" x2="966" y2="207.0" stroke="#dc2626" stroke-width="3" />
<line x1="966" y1="207.0" x2="1324" y2="207.0" stroke="#dc2626" stroke-width="3" />
<text x="1336" y="212.0" fill="#991b1b" font-size="14" font-weight="700">R0</text>
<rect x="824" y="270" width="217" height="34" rx="10" fill="#fee2e2" stroke="#b91c1c" stroke-width="1.5" />
<text x="834" y="292" fill="#7f1d1d" font-size="15" font-weight="700">P0.29 -&gt; R1</text>
<line x1="1041" y1="287" x2="966" y2="261.0" stroke="#dc2626" stroke-width="3" />
<line x1="966" y1="261.0" x2="1324" y2="261.0" stroke="#dc2626" stroke-width="3" />
<text x="1336" y="266.0" fill="#991b1b" font-size="14" font-weight="700">R1</text>
<rect x="824" y="324" width="217" height="34" rx="10" fill="#fee2e2" stroke="#b91c1c" stroke-width="1.5" />
<text x="834" y="346" fill="#7f1d1d" font-size="15" font-weight="700">P0.02 -&gt; R2</text>
<line x1="1041" y1="341" x2="966" y2="315.0" stroke="#dc2626" stroke-width="3" />
<line x1="966" y1="315.0" x2="1324" y2="315.0" stroke="#dc2626" stroke-width="3" />
<text x="1336" y="320.0" fill="#991b1b" font-size="14" font-weight="700">R2</text>
<rect x="824" y="378" width="217" height="34" rx="10" fill="#fee2e2" stroke="#b91c1c" stroke-width="1.5" />
<text x="834" y="400" fill="#7f1d1d" font-size="15" font-weight="700">P1.15 -&gt; R3</text>
<line x1="1041" y1="395" x2="966" y2="369.0" stroke="#dc2626" stroke-width="3" />
<line x1="966" y1="369.0" x2="1324" y2="369.0" stroke="#dc2626" stroke-width="3" />
<text x="1336" y="374.0" fill="#991b1b" font-size="14" font-weight="700">R3</text>
<rect x="824" y="450" width="217" height="30" rx="10" fill="#dbeafe" stroke="#1d4ed8" stroke-width="1.5" />
<text x="834" y="470" fill="#1e3a8a" font-size="14" font-weight="700">P0.20 -&gt; C0</text>
<line x1="1041" y1="465" x2="1027.0" y2="424" stroke="#2563eb" stroke-width="3" />
<line x1="1027.0" y1="180" x2="1027.0" y2="424" stroke="#2563eb" stroke-width="3" />
<text x="1017.0" y="152" fill="#1d4ed8" font-size="14" font-weight="700">C0</text>
<rect x="824" y="494" width="217" height="30" rx="10" fill="#dbeafe" stroke="#1d4ed8" stroke-width="1.5" />
<text x="834" y="514" fill="#1e3a8a" font-size="14" font-weight="700">P0.22 -&gt; C1</text>
<line x1="1041" y1="509" x2="1081.0" y2="424" stroke="#2563eb" stroke-width="3" />
<line x1="1081.0" y1="180" x2="1081.0" y2="424" stroke="#2563eb" stroke-width="3" />
<text x="1071.0" y="152" fill="#1d4ed8" font-size="14" font-weight="700">C1</text>
<rect x="824" y="538" width="217" height="30" rx="10" fill="#dbeafe" stroke="#1d4ed8" stroke-width="1.5" />
<text x="834" y="558" fill="#1e3a8a" font-size="14" font-weight="700">P0.24 -&gt; C2</text>
<line x1="1041" y1="553" x2="1135.0" y2="424" stroke="#2563eb" stroke-width="3" />
<line x1="1135.0" y1="180" x2="1135.0" y2="424" stroke="#2563eb" stroke-width="3" />
<text x="1125.0" y="152" fill="#1d4ed8" font-size="14" font-weight="700">C2</text>
<rect x="824" y="582" width="217" height="30" rx="10" fill="#dbeafe" stroke="#1d4ed8" stroke-width="1.5" />
<text x="834" y="602" fill="#1e3a8a" font-size="14" font-weight="700">P1.00 -&gt; C3</text>
<line x1="1041" y1="597" x2="1189.0" y2="424" stroke="#2563eb" stroke-width="3" />
<line x1="1189.0" y1="180" x2="1189.0" y2="424" stroke="#2563eb" stroke-width="3" />
<text x="1179.0" y="152" fill="#1d4ed8" font-size="14" font-weight="700">C3</text>
<rect x="824" y="626" width="217" height="30" rx="10" fill="#dbeafe" stroke="#1d4ed8" stroke-width="1.5" />
<text x="834" y="646" fill="#1e3a8a" font-size="14" font-weight="700">P0.11 -&gt; C4</text>
<line x1="1041" y1="641" x2="1243.0" y2="424" stroke="#2563eb" stroke-width="3" />
<line x1="1243.0" y1="180" x2="1243.0" y2="424" stroke="#2563eb" stroke-width="3" />
<text x="1233.0" y="152" fill="#1d4ed8" font-size="14" font-weight="700">C4</text>
<rect x="824" y="670" width="217" height="30" rx="10" fill="#dbeafe" stroke="#1d4ed8" stroke-width="1.5" />
<text x="834" y="690" fill="#1e3a8a" font-size="14" font-weight="700">P0.17 -&gt; C5</text>
<line x1="1041" y1="685" x2="1297.0" y2="424" stroke="#2563eb" stroke-width="3" />
<line x1="1297.0" y1="180" x2="1297.0" y2="424" stroke="#2563eb" stroke-width="3" />
<text x="1287.0" y="152" fill="#1d4ed8" font-size="14" font-weight="700">C5</text>
<rect x="1008" y="188" width="38" height="38" rx="9" fill="#ffffff" stroke="#334155" stroke-width="1.5" />
<circle cx="1027" cy="207" r="7" fill="#111827" />
<text x="1012" y="242" fill="#475569" font-size="10">R0 C0</text>
<rect x="1062" y="188" width="38" height="38" rx="9" fill="#ffffff" stroke="#334155" stroke-width="1.5" />
<circle cx="1081" cy="207" r="7" fill="#111827" />
<text x="1066" y="242" fill="#475569" font-size="10">R0 C1</text>
<rect x="1116" y="188" width="38" height="38" rx="9" fill="#ffffff" stroke="#334155" stroke-width="1.5" />
<circle cx="1135" cy="207" r="7" fill="#111827" />
<text x="1120" y="242" fill="#475569" font-size="10">R0 C2</text>
<rect x="1170" y="188" width="38" height="38" rx="9" fill="#ffffff" stroke="#334155" stroke-width="1.5" />
<circle cx="1189" cy="207" r="7" fill="#111827" />
<text x="1174" y="242" fill="#475569" font-size="10">R0 C3</text>
<rect x="1224" y="188" width="38" height="38" rx="9" fill="#ffffff" stroke="#334155" stroke-width="1.5" />
<circle cx="1243" cy="207" r="7" fill="#111827" />
<text x="1228" y="242" fill="#475569" font-size="10">R0 C4</text>
<rect x="1278" y="188" width="38" height="38" rx="9" fill="#ffffff" stroke="#334155" stroke-width="1.5" />
<circle cx="1297" cy="207" r="7" fill="#111827" />
<text x="1282" y="242" fill="#475569" font-size="10">R0 C5</text>
<rect x="1008" y="242" width="38" height="38" rx="9" fill="#ffffff" stroke="#334155" stroke-width="1.5" />
<circle cx="1027" cy="261" r="7" fill="#111827" />
<text x="1012" y="296" fill="#475569" font-size="10">R1 C0</text>
<rect x="1062" y="242" width="38" height="38" rx="9" fill="#ffffff" stroke="#334155" stroke-width="1.5" />
<circle cx="1081" cy="261" r="7" fill="#111827" />
<text x="1066" y="296" fill="#475569" font-size="10">R1 C1</text>
<rect x="1116" y="242" width="38" height="38" rx="9" fill="#ffffff" stroke="#334155" stroke-width="1.5" />
<circle cx="1135" cy="261" r="7" fill="#111827" />
<text x="1120" y="296" fill="#475569" font-size="10">R1 C2</text>
<rect x="1170" y="242" width="38" height="38" rx="9" fill="#ffffff" stroke="#334155" stroke-width="1.5" />
<circle cx="1189" cy="261" r="7" fill="#111827" />
<text x="1174" y="296" fill="#475569" font-size="10">R1 C3</text>
<rect x="1224" y="242" width="38" height="38" rx="9" fill="#ffffff" stroke="#334155" stroke-width="1.5" />
<circle cx="1243" cy="261" r="7" fill="#111827" />
<text x="1228" y="296" fill="#475569" font-size="10">R1 C4</text>
<rect x="1278" y="242" width="38" height="38" rx="9" fill="#ffffff" stroke="#334155" stroke-width="1.5" />
<circle cx="1297" cy="261" r="7" fill="#111827" />
<text x="1282" y="296" fill="#475569" font-size="10">R1 C5</text>
<rect x="1008" y="296" width="38" height="38" rx="9" fill="#ffffff" stroke="#334155" stroke-width="1.5" />
<circle cx="1027" cy="315" r="7" fill="#111827" />
<text x="1012" y="350" fill="#475569" font-size="10">R2 C0</text>
<rect x="1062" y="296" width="38" height="38" rx="9" fill="#ffffff" stroke="#334155" stroke-width="1.5" />
<circle cx="1081" cy="315" r="7" fill="#111827" />
<text x="1066" y="350" fill="#475569" font-size="10">R2 C1</text>
<rect x="1116" y="296" width="38" height="38" rx="9" fill="#ffffff" stroke="#334155" stroke-width="1.5" />
<circle cx="1135" cy="315" r="7" fill="#111827" />
<text x="1120" y="350" fill="#475569" font-size="10">R2 C2</text>
<rect x="1170" y="296" width="38" height="38" rx="9" fill="#ffffff" stroke="#334155" stroke-width="1.5" />
<circle cx="1189" cy="315" r="7" fill="#111827" />
<text x="1174" y="350" fill="#475569" font-size="10">R2 C3</text>
<rect x="1224" y="296" width="38" height="38" rx="9" fill="#ffffff" stroke="#334155" stroke-width="1.5" />
<circle cx="1243" cy="315" r="7" fill="#111827" />
<text x="1228" y="350" fill="#475569" font-size="10">R2 C4</text>
<rect x="1278" y="296" width="38" height="38" rx="9" fill="#ffffff" stroke="#334155" stroke-width="1.5" />
<circle cx="1297" cy="315" r="7" fill="#111827" />
<text x="1282" y="350" fill="#475569" font-size="10">R2 C5</text>
<rect x="1170" y="350" width="38" height="38" rx="9" fill="#ffffff" stroke="#334155" stroke-width="1.5" />
<circle cx="1189" cy="369" r="7" fill="#111827" />
<text x="1174" y="404" fill="#475569" font-size="10">R3 C3</text>
<rect x="1224" y="350" width="38" height="38" rx="9" fill="#ffffff" stroke="#334155" stroke-width="1.5" />
<circle cx="1243" cy="369" r="7" fill="#111827" />
<text x="1228" y="404" fill="#475569" font-size="10">R3 C4</text>
<rect x="1278" y="350" width="38" height="38" rx="9" fill="#ffffff" stroke="#334155" stroke-width="1.5" />
<circle cx="1297" cy="369" r="7" fill="#111827" />
<text x="1282" y="404" fill="#475569" font-size="10">R3 C5</text>
<text x="40" y="730" fill="#334155" font-size="14">Rows = red, Columns = blue. Bottom row only has switches on C3-C5.</text>
</svg>